Coordinates
version=1
nRows=14
nColumns=40
inDegrees=yes

Units are S.I. units (second, meters, Newtons, ...)
If the header above contains a line with 'inDegrees', this indicates whether rotational values are in degrees (yes) or radians (no).

endheader
time	pelvis_tilt	pelvis_list	pelvis_rotation	pelvis_tx	pelvis_ty	pelvis_tz	hip_flexion_r	hip_adduction_r	hip_rotation_r	knee_angle_r	knee_angle_r_beta	ankle_angle_r	subtalar_angle_r	mtp_angle_r	hip_flexion_l	hip_adduction_l	hip_rotation_l	knee_angle_l	knee_angle_l_beta	ankle_angle_l	subtalar_angle_l	mtp_angle_l	lumbar_extension	lumbar_bending	lumbar_rotation	arm_flex_r	arm_add_r	arm_rot_r	elbow_flex_r	pro_sup_r	wrist_flex_r	wrist_dev_r	arm_flex_l	arm_add_l	arm_rot_l	elbow_flex_l	pro_sup_l	wrist_flex_l	wrist_dev_l
      1.77000000	     -7.72990208	     -4.77285412	      2.41597955	      0.15944847	      0.51195911	     -1.22279301	     84.29379512	    -46.57681473	      7.48606657	    112.18871662	      1.95806249	     31.19206920	     11.05891925	      0.00000000	     97.05843463	    -41.85290346	     21.02982137	    112.83553337	      1.96935157	     30.28564828	     19.19813810	      0.00000000	      0.00000000	      0.00000000	      0.00000000	     44.99973016	    -15.00000881	     44.99973016	     75.00017585	     45.00000026	      0.00000000	      0.00000000	     44.99973016	    -15.00000881	     44.99973016	     75.00017585	     45.00000026	      0.00000000	      0.00000000
      1.77500000	     -7.67518181	     -4.38167642	      2.19841688	      0.15946346	      0.51015298	     -1.22208188	     85.14455347	    -46.40207493	      8.50862293	    112.51815408	      1.96381226	     31.22806564	     11.10403314	      0.00000000	     96.88750636	    -42.14667140	     20.73407571	    113.07299375	      1.97349604	     30.39637527	     19.28435091	      0.00000000	      0.00000000	      0.00000000	      0.00000000	     44.99974743	    -15.00000772	     44.99974743	     75.00017585	     45.00000026	      0.00000000	      0.00000000	     44.99974743	    -15.00000772	     44.99974743	     75.00017585	     45.00000026	      0.00000000	      0.00000000
      1.78000000	     -7.55352545	     -4.22495427	      2.15443336	      0.15954624	      0.50858825	     -1.22198340	     85.54142066	    -46.41781507	      9.07801672	    112.77919941	      1.96836836	     31.30323667	     11.24679499	      0.00000000	     96.85879800	    -42.22285505	     20.73106899	    113.31856366	      1.97778204	     30.52586271	     19.35739488	      0.00000000	      0.00000000	      0.00000000	      0.00000000	     44.99976438	    -15.00000668	     44.99976438	     75.00017585	     45.00000026	      0.00000000	      0.00000000	     44.99976438	    -15.00000668	     44.99976438	     75.00017585	     45.00000026	      0.00000000	      0.00000000
      1.78500000	     -7.27952204	     -4.63340355	      2.31241294	      0.15979772	      0.50760032	     -1.22280560	     84.85130248	    -46.61425683	      8.53522634	    112.89873508	      1.97045465	     31.47996813	     11.39089340	      0.00000000	     97.25465177	    -42.05637841	     21.52633513	    113.57649059	      1.98228371	     30.61959767	     19.47456038	      0.00000000	      0.00000000	      0.00000000	      0.00000000	     44.99978207	    -15.00000563	     44.99978207	     75.00017585	     45.00000026	      0.00000000	      0.00000000	     44.99978207	    -15.00000563	     44.99978207	     75.00017585	     45.00000026	      0.00000000	      0.00000000
      1.79000000	     -7.19550604	     -4.32331281	      2.20645531	      0.15984632	      0.50588197	     -1.22242679	     85.53434036	    -46.57123396	      9.40351803	    113.19917915	      1.97569839	     31.52995283	     11.50888065	      0.00000000	     97.10615753	    -42.19873554	     21.32017734	    113.81866983	      1.98651054	     30.75719443	     19.51413995	      0.00000000	      0.00000000	      0.00000000	      0.00000000	     44.99979511	    -15.00000491	     44.99979511	     75.00017585	     45.00000026	      0.00000000	      0.00000000	     44.99979511	    -15.00000491	     44.99979511	     75.00017585	     45.00000026	      0.00000000	      0.00000000
      1.79500000	     -6.95428502	     -4.16051712	      2.09440146	      0.15998246	      0.50465288	     -1.22217463	     85.74389477	    -46.50157652	      9.94781646	    113.44315200	      1.97995652	     31.69598196	     11.76467063	      0.00000000	     96.91724996	    -42.38934619	     21.31019070	    114.04624677	      1.99048251	     30.93211462	     19.62567265	      0.00000000	      0.00000000	      0.00000000	      0.00000000	     44.99980599	    -15.00000433	     44.99980599	     75.00017585	     45.00000026	      0.00000000	      0.00000000	     44.99980599	    -15.00000433	     44.99980599	     75.00017585	     45.00000026	      0.00000000	      0.00000000
      1.80000000	     -6.73720550	     -4.72221952	      2.34349972	      0.16019956	      0.50351281	     -1.22336144	     84.93794147	    -46.79368824	      9.15340804	    113.53830482	      1.98161725	     31.80302313	     11.80242778	      0.00000000	     97.54559934	    -42.05009445	     22.33469015	    114.32058523	      1.99527062	     31.00698392	     19.69948025	      0.00000000	      0.00000000	      0.00000000	      0.00000000	     44.99981718	    -15.00000375	     44.99981718	     75.00017585	     45.00000026	      0.00000000	      0.00000000	     44.99981718	    -15.00000375	     44.99981718	     75.00017585	     45.00000026	      0.00000000	      0.00000000
      1.80500000	     -6.53944516	     -4.58192421	      2.27277748	      0.16033429	      0.50213535	     -1.22323590	     85.19438568	    -46.77189336	      9.67609112	    113.78447943	      1.98591380	     31.92657290	     11.98786713	      0.00000000	     97.43877604	    -42.16361636	     22.37099224	    114.56219092	      1.99948743	     31.13476395	     19.74850777	      0.00000000	      0.00000000	      0.00000000	      0.00000000	     44.99982457	    -15.00000340	     44.99982457	     75.00017585	     45.00000026	      0.00000000	      0.00000000	     44.99982457	    -15.00000340	     44.99982457	     75.00017585	     45.00000026	      0.00000000	      0.00000000
      1.81000000	     -6.25063690	     -4.44017595	      1.98034817	      0.16053216	      0.50097567	     -1.22254612	     85.38384808	    -46.50081007	     10.18410027	    114.05784209	      1.99068488	     31.96264897	     12.07511868	      0.00000000	     97.28298919	    -42.62195348	     22.45632343	    114.77273739	      2.00316216	     31.27127986	     20.03161999	      0.00000000	      0.00000000	      0.00000000	      0.00000000	     44.99983195	    -15.00000306	     44.99983195	     75.00017585	     45.00000026	      0.00000000	      0.00000000	     44.99983195	    -15.00000306	     44.99983195	     75.00017585	     45.00000026	      0.00000000	      0.00000000
      1.81500000	     -6.25863722	     -4.30995230	      2.20147277	      0.16051146	      0.49903796	     -1.22316383	     85.88769861	    -46.78866456	     10.76296249	    114.29080088	      1.99475078	     32.05855524	     12.19644389	      0.00000000	     97.35968399	    -42.23020917	     22.45955737	    115.06754597	      2.00830754	     31.40811676	     19.84027736	      0.00000000	      0.00000000	      0.00000000	      0.00000000	     44.99983980	    -15.00000270	     44.99983980	     75.00017585	     45.00000026	      0.00000000	      0.00000000	     44.99983980	    -15.00000270	     44.99983980	     75.00017585	     45.00000026	      0.00000000	      0.00000000
      1.82000000	     -5.94302121	     -4.19711057	      1.79366774	      0.16070355	      0.49789669	     -1.22226537	     86.01474963	    -46.36670698	     11.21617822	    114.56614485	      1.99955644	     32.07821068	     12.24788768	      0.00000000	     97.23995275	    -42.83534596	     22.64385356	    115.27963185	      2.01200914	     31.54639740	     20.23790603	      0.00000000	      0.00000000	      0.00000000	      0.00000000	     44.99984587	    -15.00000244	     44.99984587	     75.00017585	     45.00000026	      0.00000000	      0.00000000	     44.99984587	    -15.00000244	     44.99984587	     75.00017585	     45.00000026	      0.00000000	      0.00000000
      1.82500000	     -5.63985226	     -4.90762051	      2.29512918	      0.16093877	      0.49705867	     -1.22420309	     84.78102025	    -46.91907633	     10.11717040	    114.57270064	      1.99967086	     32.36212355	     12.45599537	      0.00000000	     97.84912385	    -42.15287926	     23.79526324	    115.57037914	      2.01708363	     31.67580397	     20.10633540	      0.00000000	      0.00000000	      0.00000000	      0.00000000	     44.99984986	    -15.00000227	     44.99984986	     75.00017585	     45.00000026	      0.00000000	      0.00000000	     44.99984986	    -15.00000227	     44.99984986	     75.00017585	     45.00000026	      0.00000000	      0.00000000
      1.83000000	     -5.49717910	     -5.02747783	      2.41868002	      0.16107555	      0.49551270	     -1.22477411	     84.74434826	    -47.09340586	     10.19867772	    114.77114536	      2.00313437	     32.43075388	     12.58078495	      0.00000000	     98.06968822	    -41.94139926	     24.20203671	    115.84695739	      2.02191083	     31.78782329	     20.13866896	      0.00000000	      0.00000000	      0.00000000	      0.00000000	     44.99985315	    -15.00000214	     44.99985315	     75.00017585	     45.00000026	      0.00000000	      0.00000000	     44.99985315	    -15.00000214	     44.99985315	     75.00017585	     45.00000026	      0.00000000	      0.00000000
      1.83500000	     -5.24539330	     -5.08959853	      2.44342295	      0.16121389	      0.49429879	     -1.22506985	     84.62333577	    -47.14453862	     10.34435915	    114.95939987	      2.00642003	     32.54914530	     12.70820687	      0.00000000	     98.10336374	    -41.90852653	     24.52116556	    116.09777530	      2.02628843	     31.93670141	     20.20762358	      0.00000000	      0.00000000	      0.00000000	      0.00000000	     44.99985682	    -15.00000199	     44.99985682	     75.00017585	     45.00000026	      0.00000000	      0.00000000	     44.99985682	    -15.00000199	     44.99985682	     75.00017585	     45.00000026	      0.00000000	      0.00000000
